<?xml version="1.0" encoding="UTF-8"?>
<svg version="1.1" xmlns="http://www.w3.org/2000/svg" width="512" height="512">
<path d="M0 0 C16.83 0 33.66 0 51 0 C54.38749022 8.12997653 57.61619109 16.21221689 60.58984375 24.48828125 C61.22180412 26.23588745 61.22180412 26.23588745 61.86653137 28.01879883 C62.99389706 31.13842992 64.1186687 34.25896818 65.24186707 37.38010025 C66.41593746 40.64155212 67.59242627 43.90213165 68.76855469 47.1628418 C70.18503567 51.09052104 71.60102671 55.018375 73.01528931 58.94685364 C75.72029077 66.45972637 78.44019557 73.96696231 81.17578125 81.46875 C87.70945064 99.42112299 93.86504298 117.40558425 99.2824707 135.72973633 C99.9348451 138.00042035 99.9348451 138.00042035 101 140 C101.26925293 139.11070801 101.53850586 138.22141602 101.81591797 137.30517578 C110.21786158 109.67602318 119.81892232 82.54312427 129.74530029 55.4296875 C131.96154844 49.37163351 134.16949037 43.31054824 136.37890625 37.25 C140.9072216 24.82890449 145.45465422 12.41489966 150 0 C167.16 0 184.32 0 202 0 C202 64.68 202 129.36 202 196 C189.79 196 177.58 196 165 196 C164.97729353 180.21236302 164.9589288 164.42473931 164.94818783 148.63709068 C164.94306469 141.30411564 164.93609942 133.97115158 164.92456055 126.63818359 C164.91449042 120.23546675 164.90811775 113.83275787 164.90591151 107.43003333 C164.90462498 104.0501259 164.90112109 100.67025902 164.89426994 97.29035568 C164.86356287 81.49509362 165.1024209 65.77146541 166 50 C165.72669357 50.8527652 165.45338715 51.7055304 165.17179871 52.58413696 C155.36847997 83.0992617 144.2167591 113.13100192 133.13658428 143.19862652 C131.09355639 148.74346377 129.05712247 154.29070985 127.02171326 159.83834839 C125.42907216 164.17760302 123.83359608 168.51580972 122.23690796 172.85357666 C121.49926282 174.85800358 120.76229713 176.86268069 120.02603149 178.86761475 C119.02277508 181.59768773 118.01590054 184.32639559 117.0078125 187.0546875 C116.56735344 188.25605347 116.56735344 188.25605347 116.11799622 189.48168945 C114.11463028 194.88536972 114.11463028 194.88536972 113 196 C111.14630389 196.08737645 109.28932459 196.10698153 107.43359375 196.09765625 C106.30888672 196.09443359 105.18417969 196.09121094 104.02539062 196.08789062 C102.84138672 196.07951172 101.65738281 196.07113281 100.4375 196.0625 C99.24962891 196.05798828 98.06175781 196.05347656 96.83789062 196.04882812 C93.89187774 196.03699675 90.94596319 196.02051287 88 196 C87.80558319 195.45797943 87.61116638 194.91595886 87.41085815 194.35751343 C75.16012745 160.20093922 75.16012745 160.20093922 62.6875 126.125 C43.04349353 72.9586461 43.04349353 72.9586461 37.28170776 54.17779541 C37.04123152 53.39415745 36.80075527 52.61051949 36.55299187 51.80313492 C36.37050455 51.2081004 36.18801723 50.61306587 36 50 C36.02978156 50.66778127 36.05956312 51.33556253 36.09024715 52.0235796 C36.86858069 69.91411695 37.13595292 87.76220023 37.09765625 105.66796875 C37.09578424 108.29738843 37.09436405 110.92680848 37.09336853 113.55622864 C37.09030746 119.68584231 37.08216757 125.81543732 37.07201904 131.94504291 C37.06069173 138.94432405 37.05530638 145.94360626 37.05032361 152.94289434 C37.03997808 167.29527373 37.02170099 181.64763314 37 196 C24.79 196 12.58 196 0 196 C0 131.32 0 66.64 0 0 Z " fill="#000000" transform="translate(65,260)"/>
<path d="M0 0 C42.24 0 84.48 0 128 0 C128 10.23 128 20.46 128 31 C97.97 31 67.94 31 37 31 C37 47.5 37 64 37 81 C62.74 81 88.48 81 115 81 C115 91.23 115 101.46 115 112 C89.26 112 63.52 112 37 112 C37 129.82 37 147.64 37 166 C68.68 166 100.36 166 133 166 C133 175.9 133 185.8 133 196 C89.11 196 45.22 196 0 196 C0 131.32 0 66.64 0 0 Z " fill="#000000" transform="translate(313,260)"/>
<path d="M0 0 C11.55 0 23.1 0 35 0 C38.35178898 11.95030718 41.57293477 23.92041129 44.64453125 35.9453125 C45.01656031 37.39644488 45.3887532 38.84753526 45.7611084 40.29858398 C47.11353914 45.5735521 48.46284617 50.8493207 49.8125 56.125 C52.844375 67.96375 55.87625 79.8025 59 92 C59.33 61.64 59.66 31.28 60 0 C68.25 0 76.5 0 85 0 C85 56.76 85 113.52 85 172 C75.76 172 66.52 172 57 172 C52.73923837 157.29842809 48.74363123 142.5573267 44.9453125 127.73046875 C44.45524977 125.82565917 43.96493353 123.92091479 43.47436523 122.01623535 C41.68819611 115.07410693 39.90687034 108.13073306 38.125 101.1875 C34.12375 85.615625 30.1225 70.04375 26 54 C25.67 92.94 25.34 131.88 25 172 C16.75 172 8.5 172 0 172 C0 115.24 0 58.48 0 0 Z " fill="#000000" transform="translate(351,61)"/>
<path d="M0 0 C5.25105442 -0.02464928 10.50207545 -0.04283568 15.75317383 -0.05493164 C17.54094021 -0.05997218 19.32870245 -0.06680454 21.11645508 -0.07543945 C23.68051168 -0.0875173 26.24451397 -0.09323094 28.80859375 -0.09765625 C29.6127623 -0.10281754 30.41693085 -0.10797882 31.24546814 -0.11329651 C33.16401715 -0.11349215 35.08245368 -0.06201983 37 0 C38.85884251 1.85884251 38.73796521 4.88797944 39.14527893 7.38861084 C39.25638927 8.06380713 39.36749961 8.73900342 39.48197693 9.4346602 C39.85590212 11.71330709 40.22394533 13.99286562 40.59204102 16.27246094 C40.85785537 17.89999854 41.12401746 19.52747938 41.39050293 21.15490723 C42.1153262 25.58830875 42.83495745 30.02253886 43.55347943 34.45696545 C44.30508922 39.0915212 45.06068463 43.72542735 45.81565857 48.35943604 C47.08373031 56.14702758 48.34836756 63.93517127 49.61108398 71.72363281 C51.07121653 80.72944335 52.53711578 89.734301 54.00605065 98.73867965 C55.26588575 106.46223108 56.52262835 114.18628104 57.77678055 121.9107573 C58.52631629 126.52723616 59.27691383 131.14353556 60.03027534 135.75939178 C60.73892249 140.10238984 61.44368331 144.44600109 62.14545441 148.79011536 C62.40369622 150.38467196 62.66328627 151.97901089 62.92432213 153.57311249 C63.28045173 155.74931791 63.63169019 157.92625854 63.98170471 160.10345459 C64.17951318 161.32168789 64.37732164 162.53992119 64.58112431 163.79507065 C65 167 65 167 65 172 C55.76 172 46.52 172 37 172 C36.01 165.5340625 36.01 165.5340625 35 158.9375 C34.79117188 157.59163818 34.58234375 156.24577637 34.3671875 154.85913086 C34.12355469 153.24083374 34.12355469 153.24083374 33.875 151.58984375 C33.70742188 150.49534912 33.53984375 149.40085449 33.3671875 148.27319336 C33 145 33 145 33 138 C23.1 138 13.2 138 3 138 C2.731875 140.64 2.46375 143.28 2.1875 146 C1.25221979 154.78272652 -0.26799781 163.33998907 -2 172 C-10.58 172 -19.16 172 -28 172 C-23.01853087 138.94542833 -17.65148763 105.95427777 -12.27135766 72.96283615 C-11.29603951 66.9809773 -10.32328599 60.99870343 -9.35110015 55.01633483 C-8.40190303 49.17584012 -7.45138711 43.33556116 -6.49975854 37.49546212 C-5.93628888 34.0374713 -5.37326571 30.57940948 -4.81145287 27.12114906 C-4.19159308 23.30611564 -3.56896509 19.49153693 -2.94604492 15.67700195 C-2.76270096 14.54640854 -2.57935699 13.41581512 -2.39045715 12.2509613 C-2.22105621 11.21639801 -2.05165527 10.18183472 -1.87712097 9.11592102 C-1.73097445 8.21897176 -1.58482794 7.3220225 -1.43425274 6.39789295 C-1.0423283 4.23373195 -0.56307847 2.12524263 0 0 Z M17 34 C13.37 60.4 9.74 86.8 6 114 C13.59 114 21.18 114 29 114 C27.56884518 99.23887438 25.6106639 84.59183896 23.48608398 69.91552734 C22.931502 66.08355588 22.38233727 62.2508361 21.83398438 58.41796875 C21.48208057 55.96870548 21.12987821 53.51948508 20.77734375 51.0703125 C20.53201149 49.36103073 20.53201149 49.36103073 20.28172302 47.61721802 C20.12808792 46.5577597 19.97445282 45.49830139 19.81616211 44.40673828 C19.68229599 43.48031525 19.54842987 42.55389221 19.4105072 41.59939575 C19.00779132 39.04933587 18.52487135 36.52748076 18 34 C17.67 34 17.34 34 17 34 Z " fill="#000000" transform="translate(275,61)"/>
<path d="M0 0 C8.21619377 7.11567607 11.740968 16.25756341 13.0625 26.875 C13.35599685 32.55670267 13.20132579 38.18314242 13.0625 43.875 C4.4825 43.875 -4.0975 43.875 -12.9375 43.875 C-13.0921875 40.6575 -13.0921875 40.6575 -13.25 37.375 C-13.68994517 31.57358966 -14.05806986 26.96199324 -16.9375 21.875 C-20.70703465 19.43588935 -23.70874247 18.62440712 -28.125 18.9375 C-32.16854649 19.93181471 -33.53666766 20.55077061 -35.9375 23.875 C-39.11081012 29.26962721 -38.67373274 35.74050015 -37.28515625 41.65234375 C-32.67066744 55.7730756 -20.70532085 65.83272479 -9.76171875 75.2890625 C3.90980763 87.17480063 11.76826783 100.8670614 13.80859375 118.97265625 C14.71996695 132.97976125 12.95759822 146.72799362 3.53515625 157.64453125 C-3.73899295 165.47949921 -12.1162088 168.46529126 -22.64453125 169.09765625 C-35.56103309 169.50139436 -47.05270065 167.96690101 -56.9375 158.875 C-63.68309384 151.05980883 -67.0982816 141.08240099 -67.03515625 130.79296875 C-67.03265869 129.9527417 -67.03016113 129.11251465 -67.02758789 128.24682617 C-67.01393188 126.67058472 -67.01393188 126.67058472 -67 125.0625 C-66.979375 121.700625 -66.95875 118.33875 -66.9375 114.875 C-58.3575 114.875 -49.7775 114.875 -40.9375 114.875 C-40.625 122.9375 -40.625 122.9375 -40.54956055 125.43383789 C-40.26479687 131.21987554 -39.27972624 136.36547188 -35.1875 140.75 C-30.56754025 143.05997988 -27.09400059 143.24122519 -22.1875 141.6875 C-18.27161491 139.50364101 -16.58869593 137.94698704 -15.25 133.6875 C-13.82472118 120.85999065 -17.13711329 111.17995963 -24.9375 100.875 C-28.91583276 96.39669724 -33.28269219 92.4091593 -37.8125 88.5 C-53.82116606 74.66416686 -65.35648663 59.96008994 -67.15625 38.234375 C-67.57738783 26.23194674 -65.05567697 12.8533563 -56.96484375 3.625 C-42.39504624 -10.35378279 -16.43466583 -11.56716081 0 0 Z " fill="#000000" transform="translate(132.9375,66.125)"/>
<path d="M0 0 C8.94521747 7.57047878 13.12791645 17.21007205 14.3125 28.8125 C14.7983078 37.27459401 14.62300111 45.77984452 14.5625 54.25 C5.6525 54.25 -3.2575 54.25 -12.4375 54.25 C-12.75 41.625 -12.75 41.625 -12.82543945 37.67724609 C-13.00134743 29.51843907 -13.00134743 29.51843907 -16.4375 22.25 C-20.00875371 19.61407464 -22.73291353 19.02765878 -27.0625 19.3125 C-29.87722846 19.7713717 -31.4146746 20.2359536 -33.875 21.75 C-37.79544295 28.02270872 -37.73049253 35.75025477 -37.69628906 42.94140625 C-37.6997937 43.86460663 -37.70329834 44.78780701 -37.70690918 45.73898315 C-37.71564739 48.7635673 -37.70990542 51.78791385 -37.703125 54.8125 C-37.70447392 56.93042037 -37.70641635 59.04834045 -37.70892334 61.16625977 C-37.71186389 65.59426842 -37.70761138 70.02219611 -37.69824219 74.45019531 C-37.68684837 80.1090591 -37.69341356 85.76773313 -37.70538712 91.42658997 C-37.71263458 95.79676732 -37.71030453 100.16690012 -37.70513153 104.53707886 C-37.70380302 106.62295555 -37.7054146 108.70883637 -37.71009064 110.79470825 C-37.71520344 113.71611149 -37.70737916 116.63721283 -37.69628906 119.55859375 C-37.70033752 120.40976776 -37.70438599 121.26094177 -37.70855713 122.13790894 C-37.65863543 132.15769753 -37.65863543 132.15769753 -33.25 140.75 C-28.39953098 143.33691681 -24.98133648 143.68742034 -19.6875 142.1875 C-15.78860846 139.86316081 -15.09111181 138.42246089 -13.4375 134.25 C-12.93880992 130.58194934 -12.93880992 130.58194934 -12.92578125 126.6640625 C-12.90783005 125.96227875 -12.88987885 125.260495 -12.87138367 124.53744507 C-12.81760953 122.31668947 -12.78349307 120.0961446 -12.75 117.875 C-12.71679763 116.36064796 -12.68230529 114.84632362 -12.64648438 113.33203125 C-12.5594945 109.63799611 -12.49915238 105.94489065 -12.4375 102.25 C-3.5275 102.25 5.3825 102.25 14.5625 102.25 C15.05369088 147.43956115 15.05369088 147.43956115 2.83203125 160.2734375 C-7.46856845 169.24435565 -20.358689 170.08769244 -33.4375 169.25 C-43.00702447 167.99684799 -50.71059444 164.46589579 -57.25 157.25 C-67.18856546 143.73355098 -66.01547831 127.7938064 -65.93359375 111.8671875 C-65.93374898 109.40105141 -65.93524184 106.93491507 -65.93800354 104.46878052 C-65.93938244 99.31973382 -65.92691267 94.1709674 -65.90405273 89.02197266 C-65.87564023 82.44412091 -65.87842067 75.86673321 -65.89114285 69.28884697 C-65.89811852 64.203136 -65.8902896 59.11753107 -65.87788582 54.03183365 C-65.87339181 51.60710177 -65.87301645 49.18235843 -65.87695122 46.75762558 C-65.87988274 43.36275883 -65.86326436 39.96851783 -65.84155273 36.57373047 C-65.84605438 35.58641937 -65.85055603 34.59910828 -65.85519409 33.58187866 C-65.73170153 21.87777243 -62.7023154 10.8565326 -54.50390625 2.2109375 C-40.2266991 -10.10151637 -15.40909159 -10.64099533 0 0 Z " fill="#000000" transform="translate(225.4375,65.75)"/>
</svg>
