<?xml version="1.0" encoding="UTF-8"?>
<svg version="1.1" xmlns="http://www.w3.org/2000/svg" width="512" height="512">
<path d="M0 0 C13.2 0 26.4 0 40 0 C47.01161645 19.32914507 54.0148328 38.66128134 61 58 C61.52436646 59.4513736 61.52436646 59.4513736 62.05932617 60.93206787 C63.68148455 65.42404651 65.29932277 69.91750237 66.90609741 74.41500854 C67.53517866 76.17362245 68.16849488 77.9307197 68.80200195 79.68774414 C76 99.92141382 76 99.92141382 76 106 C76.66 106 77.32 106 78 106 C78.1230249 105.19888794 78.1230249 105.19888794 78.24853516 104.3815918 C79.73532558 95.90199448 82.56015239 87.91829721 85.375 79.8125 C85.64590454 79.02539642 85.91680908 78.23829285 86.19592285 77.42733765 C93.88240666 55.09620463 102.04243436 32.92841933 110.16952515 10.75476074 C110.52833771 9.77519409 110.88715027 8.79562744 111.25683594 7.78637695 C111.57070251 6.93058548 111.88456909 6.07479401 112.20794678 5.19306946 C112.82997894 3.47076128 113.42092579 1.73722264 114 0 C127.2 0 140.4 0 154 0 C154 49.17 154 98.34 154 149 C144.76 149 135.52 149 126 149 C126 113.36 126 77.72 126 41 C122.04 52.55 118.08 64.1 114 76 C110.96811764 84.40871694 107.91890466 92.80670092 104.8125 101.1875 C104.07582364 103.18541851 103.3394972 105.18346607 102.60351562 107.18164062 C97.45596086 121.14117608 92.23552967 135.07325992 87 149 C80.73 149 74.46 149 68 149 C65.09858473 142.63912749 62.52085724 136.23562599 60.12890625 129.66796875 C59.76994766 128.68985229 59.41098907 127.71173584 59.04115295 126.70397949 C57.87845211 123.53296298 56.72031076 120.36030491 55.5625 117.1875 C54.75780947 114.98862969 53.95295781 112.78981834 53.14794922 110.59106445 C50.75955704 104.0627985 48.37826727 97.53196057 46 91 C45.65382629 90.04931641 45.30765259 89.09863281 44.95098877 88.11914062 C42.83682131 82.31058164 40.72852027 76.49992261 38.625 70.6875 C38.36268585 69.96372162 38.1003717 69.23994324 37.83010864 68.49423218 C37.08552836 66.43818163 36.34315472 64.38134869 35.6015625 62.32421875 C35.19244629 61.19072998 34.78333008 60.05724121 34.36181641 58.8894043 C32.51455822 53.61355809 30.76767972 48.30303917 29 43 C29 77.98 29 112.96 29 149 C19.43 149 9.86 149 0 149 C0 99.83 0 50.66 0 0 Z M27 36 C28 39 28 39 28 39 Z " fill="#000000" transform="translate(110,259)"/>
<path d="M0 0 C32.34 0 64.68 0 98 0 C98 7.92 98 15.84 98 24 C75.23 24 52.46 24 29 24 C29 36.21 29 48.42 29 61 C48.47 61 67.94 61 88 61 C88 68.92 88 76.84 88 85 C68.53 85 49.06 85 29 85 C29 98.53 29 112.06 29 126 C53.09 126 77.18 126 102 126 C102 133.59 102 141.18 102 149 C68.34 149 34.68 149 0 149 C0 99.83 0 50.66 0 0 Z " fill="#000000" transform="translate(299,259)"/>
<path d="M0 0 C8.91 0 17.82 0 27 0 C32.94 23.1 38.88 46.2 45 70 C45.33 46.9 45.66 23.8 46 0 C52.27 0 58.54 0 65 0 C65 42.9 65 85.8 65 130 C57.74 130 50.48 130 43 130 C37.69751848 111.81401307 32.89302075 93.51933602 28.125 75.1875 C24.103125 59.7496875 24.103125 59.7496875 20 44 C19.67 72.38 19.34 100.76 19 130 C12.73 130 6.46 130 0 130 C0 87.1 0 44.2 0 0 Z " fill="#000000" transform="translate(329,109)"/>
<path d="M0 0 C1.20970459 0.00523682 2.41940918 0.01047363 3.66577148 0.01586914 C4.97094727 0.0190918 6.27612305 0.02231445 7.62084961 0.02563477 C9.00952213 0.03399138 10.39819401 0.04245634 11.78686523 0.05102539 C13.17944179 0.05603873 14.57202005 0.06060193 15.96459961 0.06469727 C19.38456394 0.07653105 22.80444367 0.09301659 26.22436523 0.11352539 C28.83881651 16.02873411 31.44688255 31.94497402 34.0473938 47.86246586 C35.25505771 55.25353545 36.46479281 62.64425479 37.67944336 70.03417969 C38.73837177 76.47672531 39.79337408 82.91989955 40.84370613 89.36385244 C41.39976163 92.77448415 41.95775123 96.18477343 42.52044678 99.59431648 C43.14918741 103.40450491 43.76916023 107.2160919 44.38842773 111.02783203 C44.5754425 112.15280594 44.76245728 113.27777985 44.95513916 114.43684387 C45.12342224 115.48140747 45.29170532 116.52597107 45.46508789 117.60218811 C45.61257477 118.50277986 45.76006165 119.4033716 45.91201782 120.33125401 C46.2759819 123.57330695 46.22436523 126.85110648 46.22436523 130.11352539 C39.29436523 130.11352539 32.36436523 130.11352539 25.22436523 130.11352539 C24.72936523 127.12290039 24.23436523 124.13227539 23.72436523 121.05102539 C23.56774414 120.12281982 23.41112305 119.19461426 23.24975586 118.23828125 C23.12793945 117.48426025 23.00612305 116.73023926 22.88061523 115.95336914 C22.75493164 115.19403076 22.62924805 114.43469238 22.49975586 113.65234375 C22.15672619 110.48996294 22.22436523 107.29445635 22.22436523 104.11352539 C14.63436523 104.11352539 7.04436523 104.11352539 -0.77563477 104.11352539 C-0.89938477 105.80477539 -1.02313477 107.49602539 -1.15063477 109.23852539 C-1.72773023 116.24730805 -2.73259656 123.15993735 -3.77563477 130.11352539 C-10.37563477 130.11352539 -16.97563477 130.11352539 -23.77563477 130.11352539 C-23.18012262 121.99891687 -22.25322798 114.0528467 -20.93383789 106.02685547 C-20.74998032 104.88554169 -20.56612274 103.74422791 -20.37669373 102.56832886 C-19.77467615 98.83914569 -19.16600933 95.111085 -18.55688477 91.38305664 C-18.13443902 88.77948058 -17.71228368 86.17585738 -17.29040527 83.57218933 C-16.4093665 78.13938575 -15.5245409 72.70720923 -14.63745117 67.27539062 C-13.61140368 60.99238241 -12.59166501 54.70837404 -11.57515955 48.42381555 C-10.59485376 42.36407848 -9.6099594 36.30509715 -8.62303162 30.24643517 C-8.2040041 27.67128205 -7.78616711 25.09593494 -7.36952209 22.52039528 C-6.7894499 18.93855626 -6.20417479 15.35760688 -5.61743164 11.77685547 C-5.35868507 10.16947258 -5.35868507 10.16947258 -5.0947113 8.52961731 C-4.85501366 7.07688416 -4.85501366 7.07688416 -4.61047363 5.59480286 C-4.47258171 4.74851224 -4.33468979 3.90222162 -4.19261932 3.03028584 C-3.53111789 -0.01044976 -3.21334865 0.13142819 0 0 Z M10.22436523 28.11352539 C8.18653642 39.21220886 6.39676135 50.32285641 4.86181641 61.50219727 C4.53121256 63.90460175 4.19345871 66.3059345 3.85522461 68.70727539 C3.64061094 70.25409204 3.42640246 71.80096498 3.21264648 73.34790039 C3.11268875 74.05622009 3.01273102 74.76453979 2.90974426 75.49432373 C2.41888204 79.10708281 2.22436523 82.44482431 2.22436523 86.11352539 C7.83436523 86.11352539 13.44436523 86.11352539 19.22436523 86.11352539 C16.92662004 66.72279762 14.12300489 47.42173402 11.22436523 28.11352539 C10.89436523 28.11352539 10.56436523 28.11352539 10.22436523 28.11352539 Z " fill="#000000" transform="translate(272.775634765625,108.886474609375)"/>
<path d="M0 0 C0.5671875 0.39316406 1.134375 0.78632812 1.71875 1.19140625 C2.2859375 1.55363281 2.853125 1.91585937 3.4375 2.2890625 C9.66273342 6.79015039 11.79299572 13.50390095 13.32617188 20.70361328 C13.98692851 24.89087083 13.92834131 29.02621202 13.84375 33.25390625 C13.8025 36.20328125 13.76125 39.15265625 13.71875 42.19140625 C6.78875 42.19140625 -0.14125 42.19140625 -7.28125 42.19140625 C-7.71875 32.44140625 -7.71875 32.44140625 -7.84936523 29.38769531 C-7.9065271 28.1845166 -7.9065271 28.1845166 -7.96484375 26.95703125 C-8.01983032 25.73161621 -8.01983032 25.73161621 -8.07592773 24.48144531 C-8.27259275 22.28796395 -8.68425594 20.30744212 -9.28125 18.19140625 C-12.99141634 17.00415302 -16.40915678 16.84568364 -20.28125 17.19140625 C-23.18842073 19.41003654 -24.12106643 20.71085554 -25.28125 24.19140625 C-25.38720592 26.63853444 -25.43847312 29.05760847 -25.44238281 31.50512695 C-25.44734772 32.24695221 -25.45231262 32.98877747 -25.45742798 33.75308228 C-25.4720353 36.20779346 -25.4788495 38.66243999 -25.484375 41.1171875 C-25.490128 42.82488507 -25.49588572 44.53258262 -25.50164795 46.24028015 C-25.51215412 49.82221782 -25.51799918 53.40413307 -25.52148438 56.98608398 C-25.52696574 61.56931776 -25.55098764 66.15225395 -25.57945633 70.73539448 C-25.59810814 74.26391965 -25.60328968 77.79237353 -25.60482025 81.32094383 C-25.607842 83.01019097 -25.61585438 84.69943699 -25.62900543 86.38863564 C-25.64611804 88.75581926 -25.64417316 91.12228106 -25.63769531 93.48950195 C-25.6469101 94.18322403 -25.65612488 94.87694611 -25.6656189 95.59169006 C-25.62651484 100.16834963 -24.69359695 103.30640137 -22.28125 107.19140625 C-18.74074022 108.96166114 -14.7551513 108.38534063 -10.90625 107.87890625 C-10.37 107.65203125 -9.83375 107.42515625 -9.28125 107.19140625 C-8.22288339 104.01630643 -8.07881211 101.54858242 -7.96484375 98.2109375 C-7.90200195 96.46586914 -7.90200195 96.46586914 -7.83789062 94.68554688 C-7.79857422 93.47060547 -7.75925781 92.25566406 -7.71875 91.00390625 C-7.65397461 89.1640918 -7.65397461 89.1640918 -7.58789062 87.28710938 C-7.48171986 84.25534433 -7.38097236 81.22339025 -7.28125 78.19140625 C-0.35125 78.19140625 6.57875 78.19140625 13.71875 78.19140625 C14.43375762 110.92286631 14.43375762 110.92286631 6.32421875 120.57421875 C0.48381775 126.45725041 -5.98894997 128.41974564 -14.05737305 128.57250977 C-31.15584742 128.53032464 -31.15584742 128.53032464 -38.546875 122.2734375 C-48.6431998 112.01368298 -47.73135113 99.44895948 -47.6796875 85.97265625 C-47.68171217 84.10518277 -47.68462688 82.23771006 -47.68838501 80.37023926 C-47.69278984 76.4702191 -47.68643693 72.57040609 -47.67236328 68.67041016 C-47.65527256 63.69426225 -47.66512365 58.71859992 -47.68308067 53.74246979 C-47.69396846 49.8903646 -47.69044935 46.03837281 -47.6826973 42.18626404 C-47.68070907 40.35241131 -47.68310563 38.51854797 -47.69013596 36.68470764 C-47.7626025 12.47427795 -47.7626025 12.47427795 -38.546875 3.109375 C-29.10738374 -4.8816426 -10.84929024 -6.17806806 0 0 Z " fill="#000000" transform="translate(230.28125,110.80859375)"/>
<path d="M0 0 C7.08229887 4.83635585 10.11284619 10.71635448 12.36328125 18.89453125 C13.39611943 24.46559777 13.25629528 29.71811062 13.0078125 35.37109375 C6.4078125 35.37109375 -0.1921875 35.37109375 -6.9921875 35.37109375 C-7.48046875 31.82291667 -7.96875 28.27473958 -8.45703125 24.7265625 C-8.89611205 21.38787672 -8.89611205 21.38787672 -9.9921875 18.37109375 C-11.57347779 18.14778176 -13.15739839 17.94304731 -14.7421875 17.74609375 C-15.62390625 17.63007813 -16.505625 17.5140625 -17.4140625 17.39453125 C-20.26846988 17.36858209 -21.63949535 17.78865939 -23.9921875 19.37109375 C-26.74305346 24.61083844 -26.30850177 29.77601861 -24.9921875 35.37109375 C-21.56483865 42.79613956 -16.60199339 48.18499302 -10.5546875 53.55859375 C-9.09671223 54.88437926 -7.63967129 56.21119304 -6.18359375 57.5390625 C-5.13051025 58.49462036 -5.13051025 58.49462036 -4.05615234 59.46948242 C5.74299704 68.49782102 12.53270827 77.07378524 13.328125 90.84765625 C13.70217993 101.72343894 13.12161943 111.36314045 6.2578125 120.30859375 C2.1562193 124.66066592 -4.00634752 128.02418691 -10.02587891 128.5480957 C-12.55643047 128.61499779 -15.0858959 128.65603978 -17.6171875 128.68359375 C-18.48214844 128.71259766 -19.34710938 128.74160156 -20.23828125 128.77148438 C-27.90836651 128.84623033 -33.90446822 126.97850114 -39.8046875 121.99609375 C-46.47112342 113.99637065 -48.32917511 107.13244893 -48.1171875 96.93359375 C-48.0759375 94.10796875 -48.0346875 91.28234375 -47.9921875 88.37109375 C-41.3921875 88.37109375 -34.7921875 88.37109375 -27.9921875 88.37109375 C-27.82942708 91.85416667 -27.66666667 95.33723958 -27.50390625 98.8203125 C-26.97865206 102.46501526 -26.18649319 104.45077088 -23.9921875 107.37109375 C-20.41547303 109.15945099 -16.45148286 108.80493832 -12.6796875 107.68359375 C-9.78478736 105.43200475 -9.19892765 102.95610156 -8.734375 99.39453125 C-8.24368454 90.1368379 -11.68235256 83.49857736 -17.7421875 76.68359375 C-21.3492794 72.91783212 -25.09400649 69.40960732 -29.05859375 66.02734375 C-37.93548918 58.42369999 -46.88307803 48.55075885 -47.9921875 36.37109375 C-48.67135303 25.19001671 -48.51386546 14.31579186 -40.9921875 5.37109375 C-30.46538632 -4.00609959 -12.91504692 -6.50252362 0 0 Z " fill="#000000" transform="translate(159.9921875,110.62890625)"/>
<path d="M0 0 C0.8913414 -0.00671722 1.7826828 -0.01343445 2.70103455 -0.02035522 C5.65239001 -0.03937904 8.60351865 -0.0432615 11.55493164 -0.04541016 C13.60372512 -0.05183459 15.65251767 -0.05856268 17.7013092 -0.06558228 C21.99783455 -0.0775657 26.29427943 -0.08126196 30.59082031 -0.08007812 C36.1002817 -0.07987478 41.60922819 -0.10718892 47.11856747 -0.14162254 C51.35045245 -0.16384264 55.5822125 -0.16791718 59.81414986 -0.16685867 C61.84556416 -0.16922155 63.87698155 -0.17808352 65.90833855 -0.19352341 C68.74785478 -0.21308624 71.58624751 -0.20738384 74.42578125 -0.1953125 C75.68754181 -0.21217102 75.68754181 -0.21217102 76.97479248 -0.22937012 C80.6501443 -0.18959994 82.80214547 -0.07317666 85.76832581 2.19589233 C88.69915185 6.26345019 88.42554702 9.74780033 88.42285156 14.6081543 C88.42621017 15.46848267 88.42956879 16.32881104 88.43302917 17.21520996 C88.44255635 20.06975739 88.44448331 22.92424624 88.44555664 25.77880859 C88.44876848 27.75937423 88.4521325 29.73993963 88.4556427 31.72050476 C88.46163873 35.8775589 88.46348216 40.03459223 88.46289062 44.19165039 C88.46278909 49.51816121 88.47643062 54.84453847 88.49366283 60.17101765 C88.50478381 64.26395785 88.50680979 68.3568658 88.5062809 72.44981956 C88.50746128 74.41340787 88.51188629 76.376997 88.51961327 78.34057045 C88.5294131 81.08871411 88.52653487 83.83656845 88.52050781 86.5847168 C88.52612732 87.39581406 88.53174683 88.20691132 88.53753662 89.04258728 C88.51427234 93.21814943 88.25935827 96.57296472 86.27758789 100.29052734 C82.84342395 103.06427514 78.47814908 102.69592031 74.27758789 102.29052734 C71.84008789 101.60302734 71.84008789 101.60302734 70.27758789 100.29052734 C69.52758789 97.66552734 69.52758789 97.66552734 69.27758789 95.29052734 C68.61758789 95.29052734 67.95758789 95.29052734 67.27758789 95.29052734 C67.27758789 70.54052734 67.27758789 45.79052734 67.27758789 20.29052734 C42.7751025 20.36968607 42.7751025 20.36968607 18.27270508 20.47070312 C13.5300293 20.47973633 13.5300293 20.47973633 11.30865479 20.48141479 C9.75965221 20.48448276 8.21065437 20.49151029 6.66168213 20.50167847 C4.31318889 20.5163223 1.96498714 20.5183392 -0.38354492 20.51757812 C-1.07177967 20.52477434 -1.76001442 20.53197056 -2.46910477 20.53938484 C-6.06233396 20.52380149 -8.66378171 20.24678874 -11.72241211 18.29052734 C-11.72241211 17.63052734 -11.72241211 16.97052734 -11.72241211 16.29052734 C-12.38241211 16.29052734 -13.04241211 16.29052734 -13.72241211 16.29052734 C-14.88584438 13.96366281 -14.92137199 12.44331321 -14.97241211 9.85302734 C-15.01108398 8.67933594 -15.01108398 8.67933594 -15.05053711 7.48193359 C-14.6408865 4.74605276 -13.85264932 3.99770343 -11.72241211 2.29052734 C-7.82024033 -0.31092051 -4.52780889 -0.00486704 0 0 Z " fill="#000000" transform="translate(357.722412109375,54.70947265625)"/>
<path d="M0 0 C1.33964058 -0.00525696 1.33964058 -0.00525696 2.7063446 -0.01062012 C5.6570921 -0.01941953 8.60759969 -0.01359506 11.55834961 -0.00683594 C13.60810899 -0.00818298 15.65786806 -0.01012384 17.70762634 -0.01263428 C22.00238081 -0.01558301 26.29705208 -0.01129545 30.59179688 -0.00195312 C36.10230401 0.00944842 41.61261648 0.00287587 47.12311649 -0.00909805 C51.35494968 -0.01631724 55.58673653 -0.01402857 59.81857109 -0.00884247 C61.85079407 -0.00750651 63.88302123 -0.00915181 65.91523933 -0.01380157 C68.75220041 -0.01886852 71.58884389 -0.01115447 74.42578125 0 C75.26897919 -0.00404846 76.11217712 -0.00809692 76.98092651 -0.01226807 C80.8860137 0.01624309 82.82450306 0.04299553 86.14819336 2.25878906 C87.84031149 6.38590645 88.3161147 10.25126103 87.58569336 14.63378906 C85.80173539 17.89145143 84.49798074 18.68108822 81.14819336 20.25878906 C78.54819038 20.52782081 76.19742372 20.63974779 73.60400391 20.59936523 C72.49100166 20.60002235 72.49100166 20.60002235 71.35551453 20.60069275 C68.91504143 20.59861097 66.47526446 20.57530957 64.03491211 20.55175781 C62.33812332 20.54615967 60.64132968 20.5418906 58.9445343 20.53889465 C54.48760493 20.52746305 50.03097078 20.49801049 45.57415771 20.46478271 C41.02270501 20.43404542 36.47120441 20.42038151 31.91967773 20.40527344 C22.9957202 20.37313909 14.07198137 20.3219632 5.14819336 20.25878906 C5.15485519 21.21456848 5.16151703 22.1703479 5.16838074 23.15509033 C5.2291819 32.16008799 5.27416119 41.16504403 5.30362988 50.17020035 C5.31928933 54.79991457 5.34053268 59.42946315 5.37451172 64.05908203 C5.40709524 68.52649312 5.42504427 72.99374483 5.43282509 77.46126556 C5.43837041 79.16613016 5.44919904 80.87098598 5.46538353 82.57578278 C5.4871447 84.96282335 5.49016088 87.3492044 5.48876953 89.73632812 C5.49955536 90.44195389 5.51034119 91.14757965 5.52145386 91.87458801 C5.50226873 94.91420089 5.2997638 96.9851851 3.81440735 99.66644287 C0.93304086 102.42007055 -2.04629495 102.4408335 -5.85180664 102.50878906 C-6.71805664 102.53457031 -7.58430664 102.56035156 -8.47680664 102.58691406 C-10.85180664 102.25878906 -10.85180664 102.25878906 -12.60180664 100.99316406 C-15.61597742 96.8110021 -14.99983097 91.64193866 -14.99707031 86.69824219 C-15.00042892 85.83601547 -15.00378754 84.97378876 -15.00724792 84.08543396 C-15.01674249 81.23695432 -15.01870012 78.38853354 -15.01977539 75.54003906 C-15.02298841 73.55993628 -15.02635252 71.57983373 -15.02986145 69.59973145 C-15.03584855 65.45043385 -15.03770172 61.30115708 -15.03710938 57.15185547 C-15.03700764 51.83202975 -15.05067346 46.51233716 -15.06788158 41.19254303 C-15.07899152 37.10393661 -15.08102891 33.01536252 -15.08049965 28.92674255 C-15.08168076 26.96511882 -15.08610986 25.00349427 -15.09383202 23.04188538 C-15.10361391 20.3009401 -15.10076125 17.56028575 -15.09472656 14.81933594 C-15.10034607 14.00778549 -15.10596558 13.19623505 -15.11175537 12.36009216 C-15.07116732 5.11646447 -15.07116732 5.11646447 -12.85180664 2.25878906 C-9.1567065 -0.64184679 -4.4720865 -0.02152358 0 0 Z " fill="#000000" transform="translate(80.851806640625,54.7412109375)"/>
<path d="M0 0 C0.99 0.495 0.99 0.495 2 1 C2 1.66 2 2.32 2 3 C2.99 3.33 3.98 3.66 5 4 C6.47865762 7.980917 6.16289136 12.24378686 6.17700195 16.43701172 C6.18357315 17.28627228 6.19014435 18.13553284 6.19691467 19.01052856 C6.21660262 21.81691582 6.22829871 24.62324974 6.23828125 27.4296875 C6.24235678 28.38939579 6.2464323 29.34910408 6.25063133 30.33789444 C6.2714704 35.41520216 6.28578286 40.49248301 6.29516602 45.56982422 C6.30624075 50.81111875 6.34065915 56.05198996 6.38033772 61.29313469 C6.40648512 65.32692248 6.41485607 69.36060894 6.41844749 73.39447403 C6.42331636 75.32655835 6.43493888 77.25863806 6.45348549 79.1906395 C6.47784257 81.89550134 6.47691856 84.59926121 6.4699707 87.30419922 C6.48278076 88.09920837 6.49559082 88.89421753 6.50878906 89.71331787 C6.46018569 94.91335038 5.43570561 97.87016873 2 102 C-1.25299624 103.62649812 -4.83435219 103.15629757 -8.40942383 103.16113281 C-9.27950577 103.16609772 -10.14958771 103.17106262 -11.04603577 103.17617798 C-13.93304222 103.19081849 -16.81999372 103.19760505 -19.70703125 103.203125 C-21.71001691 103.20887528 -23.71300254 103.21463303 -25.71598816 103.22039795 C-29.92011777 103.23091358 -34.12422822 103.23675244 -38.32836914 103.24023438 C-43.7154698 103.24571764 -49.10231752 103.26973977 -54.48933887 103.29820633 C-58.6286035 103.31683123 -62.76780722 103.32203825 -66.90711021 103.32357025 C-68.89303659 103.32659808 -70.87896187 103.33463097 -72.86484718 103.34775543 C-75.6442245 103.36481133 -78.42298415 103.36293668 -81.20239258 103.35644531 C-82.02284058 103.3656601 -82.84328857 103.37487488 -83.68859863 103.3843689 C-88.29487526 103.3506706 -91.23281788 102.94210245 -95 100 C-97.56619697 96.57840405 -97.50984054 93.15155867 -97 89 C-94.33395925 85.51292466 -92.84059399 84.15245844 -88.47550964 83.36076355 C-87.10536787 83.32877334 -85.73442541 83.32373833 -84.36401367 83.34057617 C-83.23638107 83.32485062 -83.23638107 83.32485062 -82.08596802 83.30880737 C-79.61287876 83.28011453 -77.14119425 83.28634155 -74.66796875 83.29296875 C-72.9487381 83.27985011 -71.22952286 83.26454537 -69.5103302 83.24714661 C-64.99427151 83.2073027 -60.47861607 83.19710659 -55.96240234 83.19311523 C-50.53902982 83.18214061 -45.11587204 83.13428832 -39.6926651 83.09262848 C-31.4615958 83.03352266 -23.23164684 83.02122056 -15 83 C-15 59.9 -15 36.8 -15 13 C-14.34 13 -13.68 13 -13 13 C-13.05800781 12.39671875 -13.11601562 11.7934375 -13.17578125 11.171875 C-13.54148061 4.69377203 -13.54148061 4.69377203 -11 1.4375 C-6.9714545 -0.49284472 -4.44363935 -0.36423273 0 0 Z " fill="#000000" transform="translate(440,353)"/>
<path d="M0 0 C3.39990856 3.35668518 4.45796946 5.78262712 4.49768066 10.57208252 C4.48329956 11.28346375 4.46891846 11.99484497 4.45410156 12.7277832 C4.45468567 13.48929184 4.45526978 14.25080048 4.45587158 15.03538513 C4.45309498 17.54098827 4.42202469 20.04538713 4.390625 22.55078125 C4.38316106 24.29240774 4.37746885 26.03404264 4.37347412 27.77568054 C4.35822973 32.35107771 4.31895843 36.92596386 4.2746582 41.50115967 C4.23367959 46.17322884 4.21545759 50.84538089 4.1953125 55.51757812 C4.15246285 64.67860946 4.08422613 73.83926217 4 83 C5.47125336 82.98334541 5.47125336 82.98334541 6.972229 82.96635437 C16.21261846 82.86502579 25.45289531 82.79005756 34.69371414 82.74093914 C39.4446451 82.71483774 44.19512782 82.67943003 48.94580078 82.62280273 C53.52994953 82.56850193 58.11366697 82.53858356 62.69811249 82.52561378 C64.44767803 82.51637038 66.19721979 82.49831992 67.94660187 82.47134972 C70.39623639 82.43508347 72.84408582 82.43005339 75.29394531 82.43237305 C76.01827255 82.41439667 76.74259979 82.39642029 77.48887634 82.37789917 C81.26704925 82.41664573 82.70863639 82.71361713 85.44842529 85.40657043 C87.64898994 89.08477516 87.85772546 91.83750879 87 96 C85.20636089 98.8100346 83.98119065 100.50940468 81 102 C78.15856056 102.114207 75.34107636 102.16785861 72.4987793 102.17700195 C71.61894379 102.18357315 70.73910828 102.19014435 69.83261108 102.19691467 C66.91314616 102.21666879 63.99373272 102.22831474 61.07421875 102.23828125 C59.58038634 102.24439454 59.58038634 102.24439454 58.0563755 102.25063133 C52.78571402 102.27150073 47.51507865 102.28579889 42.24438477 102.29516602 C36.79667658 102.30623447 31.34937642 102.34063702 25.90181255 102.38033772 C21.7162245 102.40646593 17.53073423 102.41485446 13.34507179 102.41844749 C11.33680273 102.42332299 9.32853831 102.43496426 7.32034874 102.45348549 C4.50970377 102.47779695 1.70012192 102.47692658 -1.1105957 102.4699707 C-1.94039444 102.48278076 -2.77019318 102.49559082 -3.62513733 102.50878906 C-7.57493437 102.47315479 -9.55101111 102.2762968 -12.99308777 100.15812683 C-16.70877045 96.162479 -16.15397503 91.81018608 -16.16113281 86.66064453 C-16.16609772 85.80992371 -16.17106262 84.95920288 -16.17617798 84.08270264 C-16.19079298 81.26606439 -16.19760024 78.44948245 -16.203125 75.6328125 C-16.20887666 73.67609658 -16.2146344 71.71938068 -16.22039795 69.76266479 C-16.23090582 65.65866839 -16.23675 61.55469156 -16.24023438 57.45068359 C-16.24572094 52.19252447 -16.26975337 46.93462405 -16.29820633 41.6765461 C-16.31683096 37.63421879 -16.3220382 33.59195384 -16.32357025 29.54958725 C-16.32659732 27.611109 -16.33462767 25.67263187 -16.34775543 23.73419571 C-16.36481343 21.02197835 -16.3629364 18.3103938 -16.35644531 15.59814453 C-16.3656601 14.79796906 -16.37487488 13.99779358 -16.3843689 13.17337036 C-16.35002387 8.59138427 -15.83116102 5.64724311 -13 2 C-9.06987676 -1.36867706 -4.77975943 -1.9765208 0 0 Z " fill="#000000" transform="translate(82,354)"/>
</svg>
